<?xml version="1.0" encoding="UTF-8"?>
<svg id="new_logo_vektor_Bild" data-name="new_logo_vektor Bild" xmlns="http://www.w3.org/2000/svg" viewBox="0 0 1843.2 1843.2">
  <defs>
    <style>
      .cls-1, .cls-2 {
        stroke-width: 0px;
      }

      .cls-2 {
        fill: #fff;
      }
    </style>
  </defs>
  <path class="cls-2" d="m1843.2,1843.2H0C0,1228.8,0,614.4,0,0c614.4,0,1228.8,0,1843.2,0v1843.2ZM387.56,510.43s-.09-.11-.09-.11c-.18.4-.25,1.05-.55,1.16-1.92.78-3.88,1.47-5.85,2.14-28.15,9.56-56.25,19.3-84.48,28.63-32.32,10.68-64.16,22.82-96.99,31.97-1.37.38-2.71.99-3.96,1.69-2.04,1.14-2.29,3.67-.51,5.21.96.82,2.07,1.53,3.21,2.06,2.6,1.22,5.26,2.34,7.92,3.43,4.29,1.76,8.66,3.33,12.89,5.21,123.32,54.78,246.63,109.59,369.93,164.41,45.58,20.26,91.16,40.53,136.71,60.86,3.68,1.64,7.43,2.84,11.37,3.63,10.34,2.07,20.67,4.24,31,6.37,28.49,5.87,56.99,11.75,85.48,17.62,28.96,5.97,57.93,11.95,86.89,17.92,28.49,5.87,56.99,11.73,85.48,17.62,30.21,6.24,60.42,12.5,90.63,18.76,28.49,5.9,56.98,11.77,85.45,17.76,12.51,2.64,25.16,4.61,37.43,8.34.91.28,1.89.31,2.83.53,4.3,1.02,8.28.18,11.94-2.15,2.83-1.8,5.61-3.69,8.34-5.64,3.51-2.51,6.9-5.2,10.44-7.67,119.03-82.66,238.06-165.31,357.1-247.96,5.91-4.1,11.71-8.38,18.04-11.84,1.39-.76,2.68-1.75,3.94-2.72.75-.58,1.45-1.27,2.04-2.02,1.86-2.36,1.34-5.1-1.38-6.33-1.87-.85-3.92-1.35-5.92-1.85-2.63-.66-5.33-1.09-7.96-1.76-15.34-3.9-30.67-7.82-45.99-11.76-74-19.02-148-38.05-222-57.07-67.96-17.47-135.93-34.92-203.89-52.38-66.42-17.07-132.83-34.14-199.24-51.21-72.92-18.74-145.84-37.45-218.75-56.25-15.94-4.11-32.02-7.69-47.65-12.96-1.51-.51-3.07-.89-4.64-1.21-4.11-.82-8.09-.81-12.27.42-38.48,11.35-77.02,22.52-115.54,33.74-141.04,41.08-282.07,82.16-423.11,123.24-1.07.31-2.16.6-3.21.98-1.51.55-2.36,1.8-2.33,3.26.03,1.62,1.17,3.13,2.87,3.3,2.22.22,4.49.39,6.69.17,7.79-.76,15.56-1.79,23.35-2.55,9.71-.94,19.43-1.75,29.15-2.56,9.24-.77,18.5-1.42,27.74-2.21,3.66-.31,7.29-.72,10.88-1.68,40.63-10.8,81.27-21.55,121.92-32.28,8.19-2.16,16.41-4.21,24.61-6.31Zm644.8,646.79c-.44-.16-.88-.35-1.33-.48-18.73-5.43-37.47-10.84-56.2-16.27-8.45-2.45-16.92-4.79-25.31-7.42-3.65-1.15-6.45-.94-8.75,2.48-1.14,1.7-2.86,3.01-4.29,4.51-2.87,3.01-5.79,5.98-8.56,9.08-1.27,1.42-2.35,3.05-3.28,4.71-1.19,2.13-.88,3.54,1.2,4.93,1.71,1.14,3.63,2,5.52,2.83,3.36,1.49,6.82,2.76,10.15,4.3,35.26,16.32,70.52,32.66,105.73,49.08,3.57,1.66,7.12,2.41,11.05,2.41,16.16,0,32.32-.45,48.46.59,2.55.17,5.12.16,7.68.02,2.87-.15,5.73-.53,8.59-.83,1.57-.17,2.73-.99,3.19-2.51.65-2.13,1.34-4.27,1.73-6.46.55-3.15.72-6.36,1.27-9.51,3.43-19.36,6.93-38.71,10.4-58.07.12-.64.28-1.24,1.5-1.02.41.96.91,2.11,1.39,3.27,4.49,10.78,9.01,21.53,13.44,32.33,3.39,8.28,6.62,16.63,10.01,24.92.96,2.36,2.05,4.7,3.39,6.86,1.37,2.19,3.66,2.47,5.82.95.91-.64,1.68-1.47,2.47-2.26,1.59-1.58,3.12-3.21,4.74-4.76,19.75-18.93,39.5-37.86,59.27-56.78,163.13-156.06,326.26-312.11,489.39-468.16,1.96-1.88,4.06-3.61,6.07-5.44.83-.75,1.69-1.49,2.36-2.37,1.89-2.47,1.33-5.04-1.44-6.33-1.29-.6-2.72-.91-4.11-1.26-2.32-.59-4.68-1.05-7-1.65-10.37-2.67-20.76-5.3-31.1-8.07-8.64-2.31-17.26-4.73-25.85-7.24-3.15-.92-5.69-.64-8.49,1.4-27.92,20.35-56.03,40.46-83.93,60.84-94.04,68.7-188.01,137.49-282.01,206.24-51.91,37.97-103.81,75.94-155.71,113.9-1.53,1.12-3.1,2.18-4.59,3.23-2.19-.98-4.09-1.82-5.98-2.67-106.42-47.95-212.84-95.9-319.26-143.86-209.34-94.34-418.68-188.69-628-283.06-15.01-6.77-30.19-13.18-44.81-20.79-2.26-1.18-4.69-2.03-7.07-2.95-1.03-.4-2.14-.62-3.23-.87-1.76-.4-3.08.28-4.15,1.69-2.17,2.84-3.41,6.12-4.69,9.41-2.49,6.41-5.01,12.8-7.61,19.16-1.88,4.59-3.78,9.17-5.9,13.65-1.42,2.99-1.92,5.98-1.76,9.27.8,16.3,1.45,32.6,2.19,48.9.45,9.91,1.07,19.81,1.38,29.72.09,2.7,1,4.62,3.1,6.09,2.22,1.56,4.43,3.16,6.74,4.59,4.49,2.78,9.13,5.31,13.55,8.19,19.95,13.04,39.85,26.16,59.75,39.27.72.48,1.8.73,1.69,2.33-1.6.96-3.35,2.03-5.13,3.07-19.19,11.22-37.89,23.27-57.52,33.74-.85.45-1.66.96-2.47,1.47-4.86,3.08-5.02,3.34-4.91,9.29.5,26.87,1.04,53.75,1.51,80.62.71,40.47,1.39,80.94,2.07,121.42.05,3.2.06,6.4-.11,9.59-.16,2.99.74,5.17,3.44,6.77,3.02,1.79,5.84,3.92,8.7,5.97,9.62,6.89,19.77,13.03,28.89,20.63.49.41,1.03.76,1.58,1.08,4.88,2.9,7.51,1.57,7.86-4.15.17-2.7-.11-5.43-.15-8.15-.43-31.68-.85-63.35-1.29-95.03-.12-8.32-.29-16.64-.43-24.96-.44-26.56-.88-53.11-1.3-79.67-.02-1.25.15-2.5.23-3.78,24.99-17,49.84-33.91,74.5-50.69,2.85,1.23,42.49,25.01,45.55,27.31.34.26.49.76.84,1.31-.69.5-1.27,1.02-1.93,1.4-1.94,1.13-3.9,2.21-5.86,3.29-20.71,11.45-41.05,23.58-62.09,34.45-1.84.95-3.56,2.14-5.32,3.24-2.55,1.58-3.47,3.75-3.36,6.85.59,16.63,1,33.26,1.41,49.9.48,18.87.88,37.75,1.35,56.62.32,13.28.73,26.55,1.02,39.82.56,25.75,2.02,51.48,1.45,77.24-.09,4.31,1.46,7.41,5.09,9.58.69.41,1.37.83,2.04,1.27,4.03,2.6,8.14,5.08,12.07,7.82,7.73,5.41,15.33,11.01,23.05,16.42,1.53,1.08,3.33,1.89,5.13,2.45,1.85.58,3.24-.32,3.53-2.21.34-2.2.54-4.45.44-6.67-.72-16.3-1.54-32.6-2.3-48.9-.45-9.75-.82-19.5-1.27-29.25-1.12-24.13-2.27-48.26-3.39-72.39-.93-20.14-1.84-40.27-2.74-60.41-.08-1.74-.01-3.49-.01-5.51,30.41-20.3,60.85-40.62,91.19-60.87.91.26,1.56.35,2.12.62,18.58,8.94,37.16,17.91,55.73,26.87.14.07.28.2.33.33.05.14,0,.31-.05.83-1,.63-2.15,1.43-3.37,2.11-7.39,4.15-14.78,8.31-22.2,12.4-17.52,9.63-34.7,19.87-52.63,28.74-2,.99-3.94,2.13-5.82,3.34-1.46.94-2.78,2.09-4.26,3.22,0,1.41-.03,2.68,0,3.95.48,17.11.93,34.22,1.46,51.34.79,25.43,1.66,50.85,2.45,76.27.48,15.51.88,31.03,1.33,46.54.33,11.03.74,22.07,1.03,33.1.27,10.23.43,20.47.64,30.7.02.96.01,1.92.06,2.88.1,1.86.82,3.39,2.44,4.43,1.08.69,2.13,1.43,3.19,2.14,11.26,7.62,22.53,15.23,33.79,22.85,2.65,1.79,5.23,3.7,7.94,5.39,1.61,1.01,3.36,1.87,5.15,2.5,2.04.72,3.33-.09,4.08-2.15.91-2.48.78-5.03.57-7.59-.19-2.39-.46-4.78-.54-7.17-.47-12.95-.88-25.9-1.34-38.85-.32-9.11-.68-18.23-1.04-27.34-.82-20.78-1.66-41.56-2.45-62.34-.48-12.47-.86-24.94-1.32-37.41-.35-9.59-.77-19.18-1.14-28.77-.36-9.43-.71-18.86-1.04-28.3-.01-.3.16-.61.36-1.3,2.1-1.45,4.45-3.09,6.82-4.7,28.44-19.34,56.88-38.68,85.33-58,1.43-.97,2.71-2.27,4.85-2.55,18.71,9.28,37.61,18.65,56.52,28.04.13.07.24.22.31.36.06.13.06.29.14.71-.94,1.14-2.48,1.68-3.83,2.42-14.73,8.06-29.46,16.14-44.24,24.1-14.64,7.89-29.36,15.64-44.03,23.47-2.26,1.2-4.48,2.48-6.66,3.81-1.09.66-2.08,1.49-3.08,2.28-1.34,1.06-1.96,2.44-1.87,4.19.12,2.4.13,4.8.19,7.2.87,32.15,1.76,64.29,2.62,96.44.42,15.51.81,31.03,1.21,46.54.75,29.11,2.06,58.2,1.77,87.33-.02,1.91.22,3.83.34,5.74.19,2.99,1.78,5.06,4.31,6.49,1.39.79,2.82,1.51,4.21,2.29,1.96,1.09,3.95,2.12,5.84,3.3,8.28,5.17,16.53,10.37,24.77,15.59,2.3,1.45,4.5,3.05,6.79,4.53,1.76,1.13,3.61,2.07,5.76,2.2,2.09.13,3.07-.39,3.47-2.41.43-2.18.79-4.43.77-6.64-.03-3.99-.46-7.98-.56-11.98-.67-25.91-1.33-51.82-1.93-77.73-.56-23.99-1.03-47.99-1.57-71.98-.5-22.23-1.05-44.46-1.57-66.7-.03-1.26,0-2.52,0-3.71.85-.68,1.44-1.21,2.09-1.66,34.54-24.29,69.09-48.58,103.64-72.86.13-.09.3-.12.45-.15.15-.02.31,0,.43,0,9.29,4.22,50.78,25.91,54.13,28.34-.98.65-1.84,1.33-2.79,1.85-3.92,2.16-7.86,4.28-11.82,6.39-26.26,13.96-52.04,28.83-78.79,41.87-1.44.7-2.83,1.49-4.22,2.28-.84.47-1.62,1.03-2.45,1.51-2.12,1.21-3.27,2.97-3.23,5.47.03,2.08-.06,4.16,0,6.23.43,14.39.94,28.78,1.31,43.17.45,17.43.81,34.87,1.19,52.3.89,39.83,1.76,79.66,2.65,119.48.23,10.4.57,20.79.73,31.19.04,2.48.89,4.33,2.81,5.74,1.29.94,2.63,1.82,3.98,2.67,1.76,1.11,3.64,2.04,5.32,3.25,10.36,7.5,21.26,14.26,31.08,22.51.85.72,1.79,1.36,2.76,1.89.83.45,1.74.82,2.66,1.01,1.78.38,3.33-.35,3.81-2.08.51-1.82.72-3.76.79-5.65.08-1.91-.23-3.83-.28-5.75-.61-27.35-1.23-54.7-1.8-82.05-.48-22.71-.89-45.43-1.34-68.14-.05-2.56-.15-5.12-.2-7.68-.52-23.83-1.04-47.67-1.53-71.5-.03-1.25.13-2.5.2-3.71,1.18-.88,2.19-1.66,3.23-2.4,5.73-4.08,11.48-8.15,17.22-12.23,27.66-19.62,55.31-39.26,82.99-58.85,1.53-1.08,2.88-2.55,4.66-2.86.56.14.9.16,1.18.29,12.35,6.05,24.7,12.1,37.03,18.19.51.25.89.79,1.56,1.4-1.63.97-2.97,1.8-4.35,2.58-20.88,11.82-41.73,23.67-62.65,35.43-5.99,3.37-12.17,6.4-18.22,9.68-3.09,1.67-6.09,3.51-9.1,5.33-1.93,1.17-2.87,2.93-2.85,5.21.02,2.72-.09,5.44.02,8.16.27,6.87.75,13.74.93,20.61.51,19.67.87,39.35,1.37,59.02.77,30.71,1.63,61.41,2.4,92.12.5,19.99.91,39.99,1.38,59.98.08,3.36.33,6.71.36,10.07.02,2.12.9,3.71,2.53,4.9,1.55,1.13,3.16,2.17,4.77,3.21,1.74,1.13,3.59,2.12,5.25,3.35,10.28,7.62,21.05,14.56,30.88,22.8.97.81,2.09,1.48,3.2,2.1.68.39,1.46.65,2.23.83,2.09.47,3.87-.78,4.08-2.89.11-1.11.07-2.24.05-3.36-.19-11.2-.38-22.39-.59-33.59-.65-35.03-1.31-70.06-1.96-105.1-.6-32.47-1.19-64.95-1.79-97.42-.02-1.26,0-2.52,0-3.9,1.58-1.1,3-2.12,4.44-3.09,32.58-22.07,65.15-44.15,97.75-66.19,4.49-3.04,3.71-3.8,9.94-.82,6.06,2.9,12.01,6.01,18.04,8.97,12.49,6.12,25.02,12.18,37.5,18.32,1.06.52,2.57.65,2.83,2.51-1.25.82-2.56,1.71-3.9,2.55-13.03,8.12-26.04,16.28-39.12,24.33-10.76,6.62-21.61,13.1-32.41,19.65-2.19,1.33-4.28,2.82-6.53,4.03-3.71,2-5.07,5.1-4.79,9.14.08,1.12.11,2.24.15,3.36.08,2.4.2,4.8.2,7.2,0,16,.11,32-.07,48-.78,67.99-.33,135.99-1.55,203.98-.15,8.28.48,9.13,7.72,13.23,6.82,3.86,13.61,7.76,20.34,11.77,8.25,4.9,16.42,9.93,24.63,14.9.96.58,1.89,1.22,2.88,1.72,2.88,1.45,4.99.42,5.56-2.84.3-1.72.34-3.51.31-5.26-.17-9.76-.4-19.51-.62-29.27-.81-35.83-1.64-71.66-2.42-107.49-.49-22.55-.89-45.11-1.37-67.66-.38-17.59-.84-35.19-1.25-52.78-.03-1.1,0-2.21,0-3.08,3.19-2.98,94.72-68.05,98.4-70,4.25.82,8.05,2.88,11.86,4.9,4.67,2.46,9.24,5.11,13.98,7.42,20.99,10.21,42.03,20.33,63.05,30.49,1.44.69,2.87,1.42,4.24,2.23.28.17.29.8.42,1.22l.05.02Zm-236.78-317.15c-3.02-.12-4.43.63-5.03,2.26-.57,1.56.07,2.99,2.1,4.35,1.06.71,2.18,1.35,3.34,1.88,2.46,1.14,4.96,2.23,7.46,3.27,4.42,1.85,8.91,3.55,13.29,5.49,97.58,43.34,195.15,86.7,292.73,130.06,9.49,4.22,19.02,8.36,28.45,12.73,2.48,1.15,4.61,1.09,6.77-.28,2.83-1.8,5.64-3.65,8.37-5.59,4.69-3.33,9.28-6.81,13.99-10.12,9.69-6.8,19.39-13.56,29.16-20.25,4.61-3.16,9.39-6.08,14.07-9.13,1.47-.96,2.98-1.88,4.32-3.01,1.09-.91,2.09-2,2.87-3.18,1.74-2.6,1.46-4.13-1.35-5.37-3.05-1.35-6.25-2.46-9.48-3.26-5.43-1.33-10.97-2.2-16.41-3.5-17.72-4.24-35.41-8.59-53.11-12.91-54.5-13.28-108.99-26.56-163.49-39.83-47.98-11.69-95.96-23.34-143.93-35.06-10.09-2.46-20.29-4.45-30.19-7.67-1.51-.49-3.11-.71-3.94-.9Z"/>
  <path class="cls-1" d="m1032.31,1157.19c-.13-.42-.14-1.05-.42-1.22-1.37-.81-2.8-1.53-4.24-2.23-21.02-10.16-42.06-20.28-63.05-30.49-4.74-2.31-9.32-4.95-13.98-7.42-3.82-2.01-7.62-4.07-11.86-4.9-3.68,1.94-95.22,67.02-98.4,70,0,.87-.02,1.98,0,3.08.42,17.59.88,35.19,1.25,52.78.49,22.55.88,45.11,1.37,67.66.78,35.83,1.62,71.66,2.42,107.49.22,9.76.45,19.51.62,29.27.03,1.75-.01,3.54-.31,5.26-.57,3.26-2.68,4.29-5.56,2.84-1-.5-1.93-1.14-2.88-1.72-8.21-4.97-16.38-10-24.63-14.9-6.73-4-13.53-7.91-20.34-11.77-7.24-4.1-7.87-4.95-7.72-13.23,1.22-67.99.77-135.99,1.55-203.98.18-16,.07-32,.07-48,0-2.4-.13-4.8-.2-7.2-.04-1.12-.07-2.24-.15-3.36-.28-4.03,1.08-7.14,4.79-9.14,2.25-1.21,4.34-2.7,6.53-4.03,10.8-6.55,21.65-13.03,32.41-19.65,13.08-8.05,26.09-16.21,39.12-24.33,1.34-.84,2.65-1.73,3.9-2.55-.25-1.86-1.76-1.99-2.83-2.51-12.49-6.13-25.01-12.2-37.5-18.32-6.03-2.95-11.98-6.07-18.04-8.97-6.23-2.98-5.45-2.22-9.94.82-32.6,22.04-65.17,44.12-97.75,66.19-1.44.98-2.86,1.99-4.44,3.09,0,1.38-.02,2.64,0,3.9.59,32.47,1.18,64.95,1.79,97.42.65,35.03,1.31,70.06,1.96,105.1.21,11.2.4,22.39.59,33.59.02,1.12.05,2.25-.05,3.36-.2,2.1-1.98,3.36-4.08,2.89-.77-.17-1.55-.44-2.23-.83-1.11-.63-2.22-1.29-3.2-2.1-9.83-8.23-20.6-15.18-30.88-22.8-1.67-1.23-3.51-2.22-5.25-3.35-1.61-1.04-3.22-2.08-4.77-3.21-1.63-1.19-2.51-2.78-2.53-4.9-.03-3.36-.28-6.71-.36-10.07-.47-19.99-.88-39.99-1.38-59.98-.77-30.71-1.63-61.41-2.4-92.12-.49-19.67-.86-39.35-1.37-59.02-.18-6.87-.66-13.74-.93-20.61-.11-2.71,0-5.44-.02-8.16-.02-2.28.92-4.04,2.85-5.21,3.01-1.82,6.01-3.66,9.1-5.33,6.05-3.27,12.22-6.31,18.22-9.68,20.91-11.75,41.77-23.61,62.65-35.43,1.38-.78,2.72-1.61,4.35-2.58-.67-.61-1.05-1.14-1.56-1.4-12.33-6.08-24.68-12.14-37.03-18.19-.28-.14-.62-.16-1.18-.29-1.77.31-3.12,1.78-4.66,2.86-27.68,19.6-55.33,39.23-82.99,58.85-5.74,4.07-11.48,8.15-17.22,12.23-1.04.74-2.05,1.52-3.23,2.4-.07,1.2-.22,2.46-.2,3.71.5,23.83,1.02,47.67,1.53,71.5.06,2.56.15,5.12.2,7.68.45,22.71.87,45.43,1.34,68.14.57,27.35,1.19,54.7,1.8,82.05.04,1.92.35,3.84.28,5.75-.07,1.9-.29,3.83-.79,5.65-.48,1.74-2.03,2.46-3.81,2.08-.92-.19-1.84-.56-2.66-1.01-.98-.53-1.91-1.18-2.76-1.89-9.82-8.25-20.72-15.01-31.08-22.51-1.68-1.21-3.56-2.15-5.32-3.25-1.35-.85-2.69-1.73-3.98-2.67-1.92-1.41-2.77-3.26-2.81-5.74-.15-10.4-.49-20.79-.73-31.19-.89-39.83-1.77-79.66-2.65-119.48-.39-17.43-.74-34.87-1.19-52.3-.38-14.39-.89-28.78-1.31-43.17-.06-2.08.03-4.16,0-6.23-.03-2.5,1.11-4.25,3.23-5.47.83-.48,1.61-1.04,2.45-1.51,1.39-.78,2.79-1.58,4.22-2.28,26.75-13.04,52.53-27.91,78.79-41.87,3.95-2.1,7.89-4.23,11.82-6.39.95-.52,1.82-1.2,2.79-1.85-3.35-2.43-44.84-24.12-54.13-28.34-.11,0-.27-.02-.43,0-.16.03-.33.06-.45.15-34.55,24.28-69.1,48.57-103.64,72.86-.64.45-1.24.98-2.09,1.66,0,1.19-.03,2.45,0,3.71.52,22.23,1.07,44.46,1.57,66.7.54,23.99,1.01,47.99,1.57,71.98.6,25.91,1.26,51.82,1.93,77.73.1,3.99.53,7.98.56,11.98.02,2.21-.34,4.46-.77,6.64-.4,2.02-1.37,2.54-3.47,2.41-2.16-.13-4.01-1.06-5.76-2.2-2.28-1.47-4.49-3.07-6.79-4.53-8.24-5.22-16.5-10.42-24.77-15.59-1.9-1.18-3.89-2.22-5.84-3.3-1.4-.78-2.82-1.5-4.21-2.29-2.52-1.43-4.12-3.5-4.31-6.49-.12-1.91-.36-3.83-.34-5.74.29-29.13-1.02-58.22-1.77-87.33-.4-15.51-.79-31.03-1.21-46.54-.87-32.15-1.75-64.29-2.62-96.44-.07-2.4-.07-4.8-.19-7.2-.09-1.75.52-3.13,1.87-4.19,1-.79,1.99-1.62,3.08-2.28,2.19-1.33,4.41-2.61,6.66-3.81,14.67-7.83,29.39-15.58,44.03-23.47,14.78-7.96,29.51-16.04,44.24-24.1,1.36-.74,2.9-1.27,3.83-2.42-.08-.43-.08-.59-.14-.71-.07-.14-.18-.29-.31-.36-18.9-9.38-37.81-18.76-56.52-28.04-2.14.28-3.42,1.58-4.85,2.55-28.45,19.32-56.89,38.66-85.33,58-2.37,1.61-4.72,3.26-6.82,4.7-.2.69-.37,1-.36,1.3.34,9.43.68,18.86,1.04,28.3.37,9.59.79,19.18,1.14,28.77.46,12.47.85,24.94,1.32,37.41.79,20.78,1.64,41.56,2.45,62.34.36,9.11.72,18.22,1.04,27.34.46,12.95.87,25.9,1.34,38.85.09,2.39.35,4.78.54,7.17.21,2.56.34,5.12-.57,7.59-.76,2.06-2.05,2.86-4.08,2.15-1.79-.63-3.54-1.49-5.15-2.5-2.71-1.69-5.29-3.6-7.94-5.39-11.26-7.62-22.52-15.24-33.79-22.85-1.06-.72-2.11-1.45-3.19-2.14-1.62-1.04-2.35-2.56-2.44-4.43-.05-.96-.04-1.92-.06-2.88-.21-10.23-.37-20.47-.64-30.7-.29-11.03-.71-22.07-1.03-33.1-.46-15.51-.85-31.03-1.33-46.54-.79-25.43-1.66-50.85-2.45-76.27-.53-17.11-.98-34.22-1.46-51.34-.04-1.27,0-2.54,0-3.95,1.47-1.12,2.8-2.28,4.26-3.22,1.88-1.21,3.82-2.35,5.82-3.34,17.93-8.87,35.11-19.11,52.63-28.74,7.43-4.08,14.81-8.25,22.2-12.4,1.22-.68,2.37-1.48,3.37-2.11.04-.51.1-.69.05-.83-.05-.14-.2-.27-.33-.33-18.57-8.96-37.15-17.93-55.73-26.87-.56-.27-1.21-.36-2.12-.62-30.34,20.25-60.78,40.57-91.19,60.87,0,2.03-.07,3.77.01,5.51.9,20.14,1.8,40.27,2.74,60.41,1.12,24.13,2.27,48.26,3.39,72.39.45,9.75.82,19.5,1.27,29.25.76,16.3,1.58,32.6,2.3,48.9.1,2.21-.11,4.47-.44,6.67-.29,1.89-1.68,2.79-3.53,2.21-1.79-.56-3.59-1.37-5.13-2.45-7.72-5.41-15.32-11.01-23.05-16.42-3.93-2.75-8.04-5.23-12.07-7.82-.67-.43-1.35-.86-2.04-1.27-3.64-2.17-5.19-5.28-5.09-9.58.57-25.76-.9-51.5-1.45-77.24-.29-13.28-.7-26.55-1.02-39.82-.46-18.87-.87-37.75-1.35-56.62-.42-16.63-.83-33.27-1.41-49.9-.11-3.1.82-5.27,3.36-6.85,1.77-1.1,3.48-2.29,5.32-3.24,21.04-10.87,41.37-23,62.09-34.45,1.96-1.08,3.92-2.17,5.86-3.29.66-.38,1.25-.9,1.93-1.4-.34-.55-.5-1.06-.84-1.31-3.06-2.3-42.7-26.08-45.55-27.31-24.66,16.78-49.51,33.68-74.5,50.69-.08,1.28-.25,2.53-.23,3.78.42,26.56.86,53.11,1.3,79.67.14,8.32.31,16.64.43,24.96.44,31.68.86,63.35,1.29,95.03.04,2.72.31,5.45.15,8.15-.35,5.72-2.98,7.05-7.86,4.15-.55-.33-1.09-.68-1.58-1.08-9.12-7.59-19.27-13.74-28.89-20.63-2.86-2.05-5.68-4.18-8.7-5.97-2.71-1.6-3.6-3.78-3.44-6.77.17-3.19.16-6.4.11-9.59-.67-40.47-1.35-80.94-2.07-121.42-.47-26.87-1.01-53.75-1.51-80.62-.11-5.95.05-6.21,4.91-9.29.81-.51,1.63-1.02,2.47-1.47,19.62-10.48,38.33-22.53,57.52-33.74,1.78-1.04,3.54-2.12,5.13-3.07.11-1.6-.97-1.86-1.69-2.33-19.9-13.11-39.8-26.23-59.75-39.27-4.41-2.89-9.06-5.41-13.55-8.19-2.31-1.43-4.52-3.03-6.74-4.59-2.1-1.47-3.01-3.39-3.1-6.09-.31-9.91-.93-19.81-1.38-29.72-.74-16.3-1.39-32.61-2.19-48.9-.16-3.29.34-6.28,1.76-9.27,2.12-4.48,4.03-9.06,5.9-13.65,2.6-6.36,5.12-12.75,7.61-19.16,1.28-3.29,2.52-6.57,4.69-9.41,1.08-1.41,2.39-2.09,4.15-1.69,1.09.25,2.2.47,3.23.87,2.38.92,4.81,1.78,7.07,2.95,14.62,7.62,29.8,14.03,44.81,20.79,209.33,94.37,418.66,188.71,628,283.06,106.42,47.96,212.84,95.91,319.26,143.86,1.89.85,3.79,1.69,5.98,2.67,1.5-1.05,3.07-2.11,4.59-3.23,51.91-37.96,103.81-75.94,155.71-113.9,94-68.76,187.97-137.54,282.01-206.24,27.9-20.38,56-40.49,83.93-60.84,2.8-2.04,5.34-2.32,8.49-1.4,8.59,2.51,17.2,4.93,25.85,7.24,10.35,2.77,20.73,5.4,31.1,8.07,2.32.6,4.68,1.06,7,1.65,1.39.35,2.82.66,4.11,1.26,2.77,1.29,3.33,3.86,1.44,6.33-.67.88-1.53,1.62-2.36,2.37-2.01,1.83-4.11,3.56-6.07,5.44-163.14,156.05-326.27,312.1-489.39,468.16-19.77,18.91-39.52,37.84-59.27,56.78-1.62,1.55-3.14,3.19-4.74,4.76-.79.79-1.57,1.62-2.47,2.26-2.15,1.51-4.45,1.24-5.82-.95-1.34-2.15-2.43-4.5-3.39-6.86-3.39-8.29-6.61-16.64-10.01-24.92-4.43-10.8-8.95-21.56-13.44-32.33-.48-1.16-.99-2.31-1.39-3.27-1.22-.22-1.38.38-1.5,1.02-3.48,19.36-6.97,38.71-10.4,58.07-.56,3.15-.72,6.36-1.27,9.51-.39,2.19-1.08,4.33-1.73,6.46-.46,1.52-1.62,2.35-3.19,2.51-2.86.31-5.72.68-8.59.83-2.55.14-5.13.14-7.68-.02-16.15-1.05-32.31-.6-48.46-.59-3.93,0-7.48-.74-11.05-2.41-35.22-16.42-70.47-32.75-105.73-49.08-3.33-1.54-6.79-2.82-10.15-4.3-1.89-.84-3.81-1.69-5.52-2.83-2.08-1.39-2.39-2.8-1.2-4.93.93-1.66,2.01-3.29,3.28-4.71,2.77-3.1,5.69-6.07,8.56-9.08,1.43-1.5,3.15-2.81,4.29-4.51,2.3-3.42,5.1-3.62,8.75-2.48,8.39,2.63,16.86,4.98,25.31,7.42,18.73,5.43,37.47,10.84,56.2,16.27.45.13.88.32,1.35.47.3,0,.57.01.84.02-.31-.01-.61-.02-.92-.04Z"/>
  <path class="cls-1" d="m387.56,510.43c-8.21,2.1-16.42,4.15-24.61,6.31-40.65,10.73-81.29,21.48-121.92,32.28-3.59.95-7.22,1.36-10.88,1.68-9.24.79-18.5,1.44-27.74,2.21-9.72.81-19.44,1.61-29.15,2.56-7.79.76-15.56,1.79-23.35,2.55-2.21.22-4.47.05-6.69-.17-1.7-.17-2.85-1.68-2.87-3.3-.02-1.46.83-2.71,2.33-3.26,1.05-.38,2.14-.66,3.21-.98,141.04-41.08,282.07-82.16,423.11-123.24,38.52-11.22,77.05-22.39,115.54-33.74,4.18-1.23,8.15-1.25,12.27-.42,1.56.31,3.13.7,4.64,1.21,15.63,5.26,31.71,8.85,47.65,12.96,72.9,18.79,145.83,37.5,218.75,56.25,66.41,17.07,132.83,34.15,199.24,51.21,67.96,17.46,135.93,34.91,203.89,52.38,74,19.02,148,38.05,222,57.07,15.33,3.94,30.66,7.86,45.99,11.76,2.63.67,5.32,1.1,7.96,1.76,2.01.5,4.05,1,5.92,1.85,2.72,1.23,3.24,3.96,1.38,6.33-.59.75-1.28,1.44-2.04,2.02-1.27.97-2.55,1.96-3.94,2.72-6.33,3.47-12.13,7.74-18.04,11.84-119.04,82.65-238.08,165.29-357.1,247.96-3.55,2.46-6.93,5.16-10.44,7.67-2.73,1.95-5.51,3.84-8.34,5.64-3.66,2.33-7.64,3.17-11.94,2.15-.93-.22-1.91-.26-2.83-.53-12.26-3.74-24.92-5.71-37.43-8.34-28.47-6-56.96-11.86-85.45-17.76-30.21-6.26-60.42-12.52-90.63-18.76-28.49-5.88-56.99-11.74-85.48-17.62-28.96-5.97-57.93-11.95-86.89-17.92-28.49-5.88-56.99-11.75-85.48-17.62-10.33-2.13-20.66-4.29-31-6.37-3.94-.79-7.69-1.99-11.37-3.63-45.55-20.33-91.13-40.6-136.71-60.86-123.31-54.82-246.61-109.62-369.93-164.41-4.23-1.88-8.6-3.45-12.89-5.21-2.66-1.09-5.31-2.21-7.92-3.43-1.15-.54-2.26-1.24-3.21-2.06-1.78-1.53-1.53-4.07.51-5.21,1.25-.7,2.59-1.31,3.96-1.69,32.83-9.15,64.67-21.29,96.99-31.97,28.23-9.33,56.33-19.06,84.48-28.63,1.97-.67,3.93-1.36,5.85-2.14.29-.12.37-.76.56-1.15.67.11,1.33.21,2.43.37-1.09-1.15-1.71-.5-2.35-.28Zm192.75,124.34c-.07.37-.14.74-.21,1.11,12.25,4.91,24.58,9.64,36.88,14.46,12.21,4.78,24.42,9.54,36.63,14.31,12.36,4.83,24.71,9.67,37.07,14.5,12.36,4.83,24.71,9.67,37.07,14.5,12.21,4.77,24.42,9.54,36.63,14.31,12.36,4.83,24.71,9.67,37.07,14.51,12.36,4.83,24.72,9.66,37.07,14.5,12.36,4.83,24.71,9.67,37.07,14.5,12.21,4.77,24.41,9.58,36.63,14.3,12.35,4.77,24.61,9.8,37.01,14.34,65.88-33.62,131.52-67.12,197.05-100.56.42-2.17.85-4.01.12-6.1-1.92.26-3.36,1.29-4.89,2.05-40.92,20.42-81.83,40.85-122.75,61.27-20.46,10.21-40.94,20.37-61.34,30.7-3,1.52-5.69,1.8-8.68.53-1.91-.81-3.85-1.56-5.78-2.34-2.96-1.19-5.9-2.46-8.9-3.56-16.05-5.91-32.11-11.8-48.18-17.66-95.36-34.78-190.73-69.54-286.09-104.34-1.18-.43-2.39-1.01-3.33-1.81-2-1.69-1.54-4.58.91-5.29,2.28-.66,4.69-1.11,7.05-1.16,4.47-.08,8.96.38,13.43.29,9.59-.19,19.18-.55,28.77-.94,2.28-.09,4.44.19,6.6.86,14.66,4.52,29.35,8.97,44.01,13.51,75.74,23.42,151.48,46.86,227.22,70.3,10.23,3.17,20.51,6.19,30.68,9.54,3.31,1.09,6.22.92,9.21-.59,1.71-.87,3.44-1.7,5.16-2.54,2.73-1.33,5.44-2.71,8.21-3.95,36.19-16.19,72.4-32.36,108.6-48.52,20.58-9.19,41.18-18.36,61.75-27.58,1.46-.65,3.21-.98,4.47-2.71-2.01-.72-3.64-1.35-5.29-1.89-98.96-32.18-197.92-64.34-296.86-96.58-3.05-.99-5.66-1.07-8.73.04-82.89,29.78-165.82,59.46-248.74,89.16-4.2,1.51-8.4,3.04-12.6,4.55Zm-187.93-125.52l.27.16.06-.23-.33.06Z"/>
  <path class="cls-1" d="m795.58,840.06c.84.19,2.44.41,3.94.9,9.9,3.22,20.11,5.2,30.19,7.67,47.97,11.72,95.95,23.38,143.93,35.06,54.5,13.27,108.99,26.55,163.49,39.83,17.7,4.31,35.39,8.66,53.11,12.91,5.44,1.3,10.98,2.17,16.41,3.5,3.24.8,6.44,1.91,9.48,3.26,2.81,1.24,3.08,2.77,1.35,5.37-.79,1.18-1.79,2.27-2.87,3.18-1.34,1.12-2.85,2.05-4.32,3.01-4.69,3.05-9.46,5.97-14.07,9.13-9.77,6.68-19.47,13.45-29.16,20.25-4.71,3.3-9.3,6.79-13.99,10.12-2.73,1.94-5.54,3.79-8.37,5.59-2.17,1.38-4.29,1.43-6.77.28-9.42-4.37-18.95-8.51-28.45-12.73-97.57-43.36-195.14-86.72-292.73-130.06-4.38-1.95-8.87-3.64-13.29-5.49-2.51-1.05-5-2.13-7.46-3.27-1.16-.53-2.28-1.17-3.34-1.88-2.03-1.36-2.67-2.79-2.1-4.35.6-1.63,2.01-2.38,5.03-2.26Z"/>
  <path class="cls-2" d="m1032.31,1157.19c.31.01.61.02.92.04-.27,0-.55-.02-.84-.02-.02,0-.08-.02-.08-.02Z"/>
  <path class="cls-2" d="m580.31,634.77c4.2-1.52,8.4-3.05,12.6-4.55,82.92-29.7,165.85-59.38,248.74-89.16,3.07-1.1,5.69-1.03,8.73-.04,98.94,32.24,197.9,64.4,296.86,96.58,1.66.54,3.28,1.17,5.29,1.89-1.26,1.74-3.01,2.06-4.47,2.71-20.57,9.22-41.16,18.39-61.75,27.58-36.2,16.17-72.41,32.34-108.6,48.52-2.77,1.24-5.48,2.63-8.21,3.95-1.73.84-3.45,1.68-5.16,2.54-2.99,1.51-5.9,1.69-9.21.59-10.17-3.36-20.45-6.38-30.68-9.54-75.74-23.43-151.48-46.87-227.22-70.3-14.66-4.53-29.34-8.98-44.01-13.51-2.17-.67-4.32-.95-6.6-.86-9.59.39-19.18.75-28.77.94-4.47.09-8.95-.37-13.43-.29-2.36.04-4.77.5-7.05,1.16-2.45.71-2.91,3.6-.91,5.29.95.8,2.15,1.38,3.33,1.81,95.36,34.79,190.72,69.56,286.09,104.34,16.07,5.86,32.13,11.75,48.18,17.66,3,1.1,5.94,2.37,8.9,3.56,1.93.78,3.86,1.53,5.78,2.34,2.99,1.27,5.68.99,8.68-.53,20.39-10.34,40.88-20.49,61.34-30.7,40.91-20.43,81.83-40.86,122.75-61.27,1.53-.76,2.98-1.8,4.89-2.05.73,2.1.3,3.93-.12,6.1-65.54,33.45-131.17,66.94-197.05,100.56-12.4-4.54-24.66-9.57-37.01-14.34-12.23-4.72-24.42-9.53-36.63-14.3-12.36-4.83-24.71-9.67-37.07-14.5-12.36-4.83-24.72-9.66-37.07-14.5-12.36-4.83-24.71-9.68-37.07-14.51-12.21-4.77-24.42-9.54-36.63-14.31-12.36-4.83-24.71-9.66-37.07-14.5-12.36-4.83-24.71-9.67-37.07-14.5-12.21-4.77-24.42-9.53-36.63-14.31-12.29-4.81-24.62-9.55-36.88-14.46.07-.37.14-.74.21-1.11Zm427.56-10c2.38.24,3.56-.32,4.37-1.35,1.27-1.63,2.51-3.31,3.53-5.11,1.66-2.92,3.34-5.81,5.52-8.4.91-1.08,1.64-2.37,2.23-3.67.95-2.07.54-3.84-1.35-5.01-1.46-.91-3.15-1.52-4.81-2.07-2.88-.95-5.84-1.65-8.72-2.6-35.37-11.65-70.73-23.28-106.08-35.01-17.29-5.73-34.53-11.6-51.76-17.51-3.95-1.35-7.46-1.41-11.52.23-37.46,15.22-74.54,31.38-112.43,45.52-3.29,1.23-6.47,2.76-9.62,4.31-1.71.84-3.35,1.89-4.86,3.06-2.54,1.98-2.27,3.7.63,4.88.89.36,1.8.68,2.72.91,4.19,1.04,8.39,2.01,12.57,3.05,6.51,1.63,12.74,1.27,19.26-.81,25.88-8.25,51.9-16.06,77.86-24.08,3.09-.96,6.16-1.47,9.41-1.39,7.99.2,15.99.25,23.99.27,2.59,0,5.06.42,7.53,1.2,11.88,3.78,23.76,7.53,35.67,11.23,32.35,10.05,64.71,20.07,97.07,30.09,2.29.71,4.61,1.29,6.94,1.89.92.24,1.88.35,1.85.35Zm-92.7-.3c1.66-1.22,2.61-2.05,3.67-2.68,1.64-.98,3.41-1.76,5.04-2.76,1.63-1,3.28-2.02,4.69-3.3,2.7-2.45,2.46-5.1-.68-7.06-1.74-1.09-3.71-1.84-5.64-2.59-2.23-.87-4.58-1.44-6.78-2.38-12.06-5.11-24.1-10.28-36.14-15.43-.73-.31-1.49-.58-2.21-.92-2.22-1.04-4.23-.75-6.34.53-6.16,3.72-12.4,7.29-18.61,10.91-3.45,2.01-6.94,3.97-10.35,6.04-1.49.9-2.91,1.13-4.53.43-2.35-1.01-4.73-1.94-7.1-2.9-2.52-1.02-5.01-2.11-7.57-3.01-2.51-.88-4.89-.6-7.37.66-15.83,7.99-31.21,16.88-47.49,23.96-1.7.74-3.25,2.05-4.57,3.39-1.58,1.61-.83,4.34,1.31,5.08,1.5.52,3.09.82,4.67,1.02,6.98.86,13.98,1.54,20.94,2.52,2.26.32,3.97-.14,5.75-1.47,5.88-4.41,11.84-8.72,17.79-13.05,1.01-.73,2.11-1.34,3.33-2.11,7.77,3.55,15.46,7.07,23.15,10.6.72.33,1.41.76,2.13,1.1,1.88.9,3.69.85,5.41-.44.9-.67,1.83-1.28,2.75-1.92,8.39-5.85,16.79-11.69,25.17-17.56,1.61-1.13,3.21-2.11,5.3-1.48,4.73,1.41,9.38,3.06,14.23,5.16-.71,1.27-1.22,2.41-1.93,3.41-1.2,1.69-2.62,3.24-3.78,4.95-.98,1.44-1.89,2.97-2.56,4.58-.92,2.21-.54,3.75,1.44,4.99,1.87,1.17,3.96,2.04,6.03,2.84,4.91,1.9,9.91,3.6,14.8,5.54,10.99,4.36,21.94,8.81,32.9,13.26,2.1.86,4.16,1.41,6.5,1.13,9.68-1.14,19.38-2.11,29.06-3.27,2.18-.26,4-.05,5.86,1.22,7.66,5.22,15.39,10.33,23.11,15.47.93.62,1.86,1.27,2.88,1.7,2.15.9,4.31.2,5.21-1.99,1.27-3.09,2.26-6.3,3.26-9.5.54-1.72-.11-3.13-1.61-4.14-.4-.27-.77-.57-1.16-.86-9.94-7.54-20.15-14.68-30.52-21.61-2-1.33-3.84-1.86-6.25-1.47-9.3,1.53-18.64,2.85-27.95,4.3-2.74.42-5.32.25-7.98-.76-7.76-2.96-15.6-5.7-23.41-8.55-1.04-.38-2.04-.84-3.83-1.59Zm-169.55,24.96c.56.62,1.01,1.07,1.41,1.56,1.85,2.2,3.68,4.43,5.55,6.61,1.63,1.91,3.58,2.87,6.25,2.93,6.39.14,12.77.72,19.17.92,2.57.08,4.56.8,6.33,2.73,2.59,2.83,5.44,5.42,8.1,8.19,1.22,1.27,2.6,1.78,4.29,1.63.96-.08,1.94-.02,2.86-.24,5.12-1.24,10.23-2.55,15.34-3.84,1.98-.5,2.87-1.81,3.02-3.8.28-3.71-.2-7.33-1.12-10.92-.41-1.6-1.41-2.4-3.02-2.61-2.6-.33-5.09.11-7.55.93-1.93.64-3.89,1.22-5.8,1.82-4.12-3.95-7.3-8.4-11.39-12.02-7.61.27-15.11.54-23.04.82-.62-.78-1.35-1.63-2.02-2.53-3.93-5.29-9.79-7.52-15.6-9.8-1.2-.47-2.49-.69-3.72,0-2.95,1.67-5.72,3.56-7.63,6.43-2.22,3.33-2.07,7.19.49,10.23.54.65,1.59,1.16,2.44,1.21,1.74.11,3.5-.13,5.63-.25Zm233.4,28.26c-.79.26-1.85.55-2.86.96-5.02,2.04-10.03,4.12-15.04,6.18-3.54,1.46-7.11,2.86-10.6,4.42-1.74.78-3.39,1.78-5,2.81-1.26.8-1.51,1.85-1.16,3.33.57,2.41,2.38,3.71,4.33,4.86,5.77,3.41,11.6,6.72,17.32,10.21,1.84,1.12,3.55,1.24,5.43.42,2.05-.9,4.11-1.77,6.11-2.75,7.3-3.58,14.28-7.81,22-10.54,1.61-.57,3.13-1.63,4.43-2.77,2.51-2.21,2.37-4.29-.21-6.37-.5-.4-1.02-.77-1.57-1.1-6.43-3.94-13.25-7.02-20.53-9.03-.77-.21-1.55-.37-2.66-.62Zm-112.2-20.27c-.98.33-2.21.42-2.99,1.05-2.71,2.21-5.29,4.58-7.85,6.95-.57.52-.96,1.28-1.31,1.99-.86,1.77-.63,3.51.93,4.74,1.48,1.17,3.11,2.28,4.85,2.99,5.35,2.16,10.25,5.12,15.25,7.93,2.77,1.56,5.68,2.87,8.58,4.18,1.99.9,3.92.69,5.91-.42,4.31-2.41,8.73-4.61,13.11-6.9.56-.3,1.13-.6,1.63-.99,2.36-1.84,2.29-4.79-.28-6.27-1.78-1.02-3.74-1.75-5.66-2.52-9.17-3.68-18.34-7.32-27.52-10.97-1.47-.59-2.97-1.12-4.65-1.76Z"/>
  <path class="cls-2" d="m387.56,510.43c.64-.22,1.27-.87,2.35.28-1.1-.16-1.76-.26-2.43-.37-.01-.01.08.09.08.09Z"/>
  <polygon class="cls-2" points="392.38 509.25 392.71 509.18 392.65 509.41 392.38 509.25"/>
  <path class="cls-1" d="m1007.87,624.77s-.92-.11-1.85-.35c-2.32-.6-4.65-1.18-6.94-1.89-32.36-10.02-64.72-20.04-97.07-30.09-11.9-3.7-23.79-7.45-35.67-11.23-2.47-.78-4.93-1.19-7.53-1.2-8-.02-15.99-.07-23.99-.27-3.25-.08-6.32.43-9.41,1.39-25.95,8.02-51.98,15.83-77.86,24.08-6.52,2.08-12.75,2.44-19.26.81-4.18-1.05-8.38-2.02-12.57-3.05-.93-.23-1.84-.55-2.72-.91-2.9-1.18-3.16-2.9-.63-4.88,1.5-1.17,3.15-2.22,4.86-3.06,3.15-1.55,6.33-3.09,9.62-4.31,37.89-14.15,74.97-30.3,112.43-45.52,4.05-1.65,7.57-1.59,11.52-.23,17.23,5.91,34.47,11.78,51.76,17.51,35.34,11.72,70.71,23.36,106.08,35.01,2.88.95,5.84,1.66,8.72,2.6,1.66.54,3.35,1.15,4.81,2.07,1.89,1.18,2.3,2.95,1.35,5.01-.59,1.29-1.32,2.58-2.23,3.67-2.18,2.59-3.85,5.48-5.52,8.4-1.02,1.79-2.26,3.48-3.53,5.11-.81,1.04-1.99,1.59-4.37,1.35Z"/>
  <path class="cls-1" d="m915.17,624.47c1.78.75,2.79,1.21,3.83,1.59,7.81,2.84,15.65,5.59,23.41,8.55,2.66,1.01,5.23,1.18,7.98.76,9.32-1.44,18.65-2.77,27.95-4.3,2.41-.4,4.25.13,6.25,1.47,10.37,6.93,20.58,14.08,30.52,21.61.38.29.76.59,1.16.86,1.5,1.01,2.15,2.42,1.61,4.14-1,3.2-1.99,6.41-3.26,9.5-.9,2.19-3.05,2.89-5.21,1.99-1.02-.43-1.95-1.08-2.88-1.7-7.71-5.14-15.45-10.25-23.11-15.47-1.87-1.27-3.69-1.48-5.86-1.22-9.68,1.16-19.38,2.13-29.06,3.27-2.34.28-4.4-.28-6.5-1.13-10.95-4.45-21.91-8.9-32.9-13.26-4.9-1.94-9.89-3.64-14.8-5.54-2.07-.8-4.16-1.67-6.03-2.84-1.98-1.24-2.36-2.78-1.44-4.99.67-1.6,1.58-3.14,2.56-4.58,1.17-1.71,2.58-3.26,3.78-4.95.71-1,1.22-2.14,1.93-3.41-4.85-2.11-9.49-3.75-14.23-5.16-2.09-.63-3.69.35-5.3,1.48-8.38,5.87-16.78,11.71-25.17,17.56-.92.64-1.86,1.25-2.75,1.92-1.72,1.29-3.53,1.33-5.41.44-.72-.34-1.4-.77-2.13-1.1-7.69-3.53-15.39-7.04-23.15-10.6-1.22.76-2.32,1.37-3.33,2.11-5.95,4.32-11.9,8.64-17.79,13.05-1.77,1.33-3.49,1.79-5.75,1.47-6.96-.98-13.96-1.66-20.94-2.52-1.58-.19-3.17-.5-4.67-1.02-2.14-.74-2.89-3.47-1.31-5.08,1.32-1.34,2.87-2.65,4.57-3.39,16.29-7.09,31.66-15.98,47.49-23.96,2.49-1.25,4.86-1.54,7.37-.66,2.56.9,5.05,1.99,7.57,3.01,2.37.96,4.75,1.89,7.1,2.9,1.62.7,3.04.47,4.53-.43,3.42-2.07,6.9-4.03,10.35-6.04,6.21-3.62,12.46-7.2,18.61-10.91,2.11-1.27,4.12-1.56,6.34-.53.72.34,1.48.6,2.21.92,12.04,5.15,24.08,10.33,36.14,15.43,2.2.93,4.55,1.5,6.78,2.38,1.93.75,3.9,1.5,5.64,2.59,3.14,1.97,3.38,4.61.68,7.06-1.4,1.27-3.06,2.3-4.69,3.3-1.63,1-3.4,1.78-5.04,2.76-1.06.63-2.01,1.46-3.67,2.68Z"/>
  <path class="cls-1" d="m745.62,649.43c-2.14.12-3.9.36-5.63.25-.85-.05-1.89-.56-2.44-1.21-2.56-3.04-2.71-6.91-.49-10.23,1.91-2.87,4.68-4.77,7.63-6.43,1.23-.69,2.52-.47,3.72,0,5.81,2.28,11.67,4.52,15.6,9.8.67.9,1.39,1.75,2.02,2.53,7.93-.28,15.43-.55,23.04-.82,4.09,3.61,7.27,8.06,11.39,12.02,1.91-.6,3.86-1.18,5.8-1.82,2.46-.82,4.95-1.26,7.55-.93,1.61.21,2.61,1,3.02,2.61.92,3.59,1.4,7.21,1.12,10.92-.15,1.99-1.05,3.3-3.02,3.8-5.11,1.29-10.22,2.6-15.34,3.84-.92.22-1.91.16-2.86.24-1.7.15-3.08-.37-4.29-1.63-2.66-2.77-5.51-5.35-8.1-8.19-1.76-1.93-3.76-2.65-6.33-2.73-6.39-.2-12.77-.78-19.17-.92-2.67-.06-4.62-1.02-6.25-2.93-1.87-2.19-3.69-4.41-5.55-6.61-.41-.48-.85-.94-1.41-1.56Z"/>
  <path class="cls-1" d="m979.02,677.69c1.11.26,1.89.41,2.66.62,7.28,2.01,14.1,5.08,20.53,9.03.54.33,1.07.7,1.57,1.1,2.57,2.08,2.72,4.15.21,6.37-1.3,1.14-2.82,2.2-4.43,2.77-7.72,2.73-14.7,6.96-22,10.54-2,.98-4.07,1.85-6.11,2.75-1.88.82-3.59.7-5.43-.42-5.72-3.49-11.55-6.8-17.32-10.21-1.94-1.15-3.76-2.45-4.33-4.86-.35-1.48-.1-2.53,1.16-3.33,1.61-1.03,3.26-2.03,5-2.81,3.5-1.56,7.06-2.96,10.6-4.42,5.01-2.07,10.02-4.14,15.04-6.18,1.01-.41,2.07-.69,2.86-.96Z"/>
  <path class="cls-1" d="m866.82,657.42c1.68.63,3.17,1.17,4.65,1.76,9.18,3.65,18.35,7.3,27.52,10.97,1.92.77,3.88,1.5,5.66,2.52,2.57,1.48,2.64,4.42.28,6.27-.5.39-1.07.69-1.63.99-4.37,2.3-8.8,4.5-13.11,6.9-1.99,1.11-3.91,1.32-5.91.42-2.9-1.31-5.82-2.62-8.58-4.18-5-2.82-9.9-5.77-15.25-7.93-1.74-.7-3.37-1.81-4.85-2.99-1.56-1.24-1.79-2.97-.93-4.74.34-.71.74-1.46,1.31-1.99,2.57-2.37,5.14-4.74,7.85-6.95.78-.64,2.01-.73,2.99-1.05Z"/>
</svg>